<svg width="16" height="12" viewBox="0 0 16 12" fill="none" xmlns="http://www.w3.org/2000/svg">
<path d="M2.61831 10.3002H0.510856C0.228693 10.3002 0 10.0248 0 9.68504C0 9.34529 0.228693 9.06992 0.510856 9.06992H2.61831C3.96442 9.06992 5.23917 8.21878 6.2081 6.67297L7.37149 4.81713C8.52109 2.98302 10.1269 1.93115 11.7768 1.93115H14.3241C14.6062 1.93115 14.8349 2.20652 14.8349 2.54628C14.8349 2.88604 14.6062 3.16141 14.3241 3.16141H11.7766C10.4307 3.16141 9.15574 4.01275 8.18682 5.55836L7.02342 7.4142C5.874 9.2483 4.26821 10.3002 2.61831 10.3002Z" fill="white"/>
<path d="M2.61831 10.3002H0.510856C0.228693 10.3002 0 10.0248 0 9.68504C0 9.34529 0.228693 9.06992 0.510856 9.06992H2.61831C3.96442 9.06992 5.23917 8.21878 6.2081 6.67297L7.37149 4.81713C8.52109 2.98302 10.1269 1.93115 11.7768 1.93115H14.3241C14.6062 1.93115 14.8349 2.20652 14.8349 2.54628C14.8349 2.88604 14.6062 3.16141 14.3241 3.16141H11.7766C10.4307 3.16141 9.15574 4.01275 8.18682 5.55836L7.02342 7.4142C5.874 9.2483 4.26821 10.3002 2.61831 10.3002Z" stroke="white"/>
<path d="M14.3241 10.3002H12.2166C10.5667 10.3002 8.96086 9.2483 7.81125 7.4142L6.64785 5.55836C5.67892 4.01254 4.40397 3.16141 3.05802 3.16141H0.510862C0.228696 3.16141 0 2.88604 0 2.54628C0 2.20652 0.228696 1.93115 0.510862 1.93115H3.05802C4.70777 1.93115 6.31358 2.98302 7.46336 4.81733L8.62676 6.67297C9.59553 8.21878 10.8705 9.06992 12.2166 9.06992H14.3241C14.6062 9.06992 14.8349 9.34529 14.8349 9.68504C14.8349 10.0248 14.6062 10.3002 14.3241 10.3002Z" fill="white"/>
<path d="M14.3241 10.3002H12.2166C10.5667 10.3002 8.96086 9.2483 7.81125 7.4142L6.64785 5.55836C5.67892 4.01254 4.40397 3.16141 3.05802 3.16141H0.510862C0.228696 3.16141 0 2.88604 0 2.54628C0 2.20652 0.228696 1.93115 0.510862 1.93115H3.05802C4.70777 1.93115 6.31358 2.98302 7.46336 4.81733L8.62676 6.67297C9.59553 8.21878 10.8705 9.06992 12.2166 9.06992H14.3241C14.6062 9.06992 14.8349 9.34529 14.8349 9.68504C14.8349 10.0248 14.6062 10.3002 14.3241 10.3002Z" stroke="white"/>
<path d="M13.3552 3.87437L14.9812 2.24938L13.3552 0.626465V3.87437Z" fill="white"/>
<path d="M13.3552 3.87437L14.9812 2.24938L13.3552 0.626465V3.87437Z" stroke="white"/>
<path d="M13.3546 4.50025C13.2739 4.50025 13.1925 4.48458 13.1146 4.45242C12.88 4.3555 12.7271 4.127 12.7271 3.87364V0.626569C12.7271 0.373212 12.8798 0.144709 13.1146 0.0477942C13.3496 -0.0493298 13.6196 0.00434942 13.7989 0.183559L15.4253 1.80689C15.6706 2.05147 15.6706 2.44832 15.4253 2.69291L13.7989 4.31644C13.6786 4.43654 13.5181 4.50025 13.3546 4.50025ZM13.9827 2.13941V2.36081L14.0936 2.25011L13.9827 2.13941Z" fill="white"/>
<path d="M13.3546 4.50025C13.2739 4.50025 13.1925 4.48458 13.1146 4.45242C12.88 4.3555 12.7271 4.127 12.7271 3.87364V0.626569C12.7271 0.373212 12.8798 0.144709 13.1146 0.0477942C13.3496 -0.0493298 13.6196 0.00434942 13.7989 0.183559L15.4253 1.80689C15.6706 2.05147 15.6706 2.44832 15.4253 2.69291L13.7989 4.31644C13.6786 4.43654 13.5181 4.50025 13.3546 4.50025ZM13.9827 2.13941V2.36081L14.0936 2.25011L13.9827 2.13941Z" stroke="white"/>
<path d="M13.3552 11.1454L14.9812 9.52246L13.3552 7.89746V11.1454Z" fill="white"/>
<path d="M13.3552 11.1454L14.9812 9.52246L13.3552 7.89746V11.1454Z" stroke="white"/>
<path d="M13.3546 11.7719C13.2739 11.7719 13.1923 11.7564 13.1146 11.724C12.88 11.6271 12.7271 11.3986 12.7271 11.1453V7.89819C12.7271 7.64463 12.88 7.41612 13.1146 7.31942C13.3502 7.22188 13.6196 7.27618 13.7989 7.45518L15.4253 9.07872C15.6706 9.32351 15.6706 9.72016 15.4253 9.96474L13.7989 11.5881C13.6786 11.7082 13.5181 11.7719 13.3546 11.7719ZM13.9827 9.41103V9.63264L14.0936 9.52194L13.9827 9.41103Z" fill="white"/>
<path d="M13.3546 11.7719C13.2739 11.7719 13.1923 11.7564 13.1146 11.724C12.88 11.6271 12.7271 11.3986 12.7271 11.1453V7.89819C12.7271 7.64463 12.88 7.41612 13.1146 7.31942C13.3502 7.22188 13.6196 7.27618 13.7989 7.45518L15.4253 9.07872C15.6706 9.32351 15.6706 9.72016 15.4253 9.96474L13.7989 11.5881C13.6786 11.7082 13.5181 11.7719 13.3546 11.7719ZM13.9827 9.41103V9.63264L14.0936 9.52194L13.9827 9.41103Z" stroke="white"/>
</svg>
