<svg width="135" height="21" viewBox="0 0 135 21" fill="none" xmlns="http://www.w3.org/2000/svg">
<path d="M14.7785 3.35644H4.05509V8.64357H12.0752V11.8812H4.05509V17.4356H14.7785V20.7921H0V0H14.7785V3.35644Z" fill="white"/>
<path d="M24.703 21C23.2411 21 21.9595 20.6832 20.8581 20.0495C19.7568 19.4158 18.8957 18.5347 18.2749 17.4059C17.6541 16.2574 17.3437 14.9307 17.3437 13.4257C17.3437 11.901 17.6541 10.5644 18.2749 9.41584C18.8957 8.26733 19.7668 7.36634 20.8882 6.71287C22.0096 6.05941 23.3012 5.73267 24.763 5.73267C26.345 5.73267 27.7468 6.11881 28.9683 6.89109C30.2099 7.66337 31.081 8.70297 31.5816 10.0099L28.0071 11.0198C27.7668 10.4455 27.3663 9.9901 26.8056 9.65347C26.2649 9.31683 25.6441 9.14851 24.9433 9.14851C24.2424 9.14851 23.6216 9.32673 23.0809 9.68317C22.5603 10.0396 22.1498 10.5347 21.8494 11.1683C21.569 11.802 21.4288 12.5446 21.4288 13.396C21.4288 14.6832 21.7493 15.703 22.3901 16.4554C23.0309 17.2079 23.8919 17.5842 24.9733 17.5842C25.6542 17.5842 26.2749 17.4257 26.8356 17.1089C27.3963 16.7723 27.8169 16.3168 28.0972 15.7426L31.6417 16.7525C31.101 18.0396 30.1999 19.0693 28.9383 19.8416C27.6967 20.6139 26.2849 21 24.703 21Z" fill="white"/>
<path d="M41.3988 21C39.9369 21 38.6353 20.6931 37.4939 20.0792C36.3524 19.4455 35.4513 18.5644 34.7905 17.4356C34.1497 16.2871 33.8293 14.9406 33.8293 13.396C33.8293 11.8317 34.1597 10.4752 34.8205 9.32673C35.5014 8.17822 36.4225 7.29703 37.584 6.68317C38.7454 6.04951 40.0471 5.73267 41.4889 5.73267C42.9307 5.73267 44.2323 6.04951 45.3938 6.68317C46.5552 7.29703 47.4764 8.17822 48.1572 9.32673C48.8381 10.4554 49.1785 11.7921 49.1785 13.3366C49.1785 14.901 48.8281 16.2574 48.1272 17.4059C47.4463 18.5545 46.5152 19.4455 45.3337 20.0792C44.1722 20.6931 42.8606 21 41.3988 21ZM41.3687 17.5842C41.9895 17.5842 42.5802 17.4356 43.1409 17.1386C43.7016 16.8218 44.1622 16.3564 44.5227 15.7426C44.8831 15.1089 45.0634 14.3069 45.0634 13.3366C45.0634 12.4059 44.8931 11.6337 44.5527 11.0198C44.2123 10.3861 43.7617 9.92079 43.201 9.62376C42.6603 9.30693 42.0696 9.14851 41.4288 9.14851C40.808 9.14851 40.2273 9.30693 39.6866 9.62376C39.166 9.92079 38.7454 10.3861 38.425 11.0198C38.1246 11.6337 37.9745 12.4257 37.9745 13.396C37.9745 14.3267 38.1246 15.1089 38.425 15.7426C38.7254 16.3564 39.1359 16.8218 39.6566 17.1386C40.1772 17.4356 40.7479 17.5842 41.3687 17.5842Z" fill="white"/>
<path d="M52.1217 5.9406H55.6061L55.8765 7.39604C56.3571 6.90099 56.9278 6.50495 57.5886 6.20792C58.2695 5.89109 59.0104 5.73267 59.8114 5.73267C60.7726 5.73267 61.6537 5.94059 62.4547 6.35644C63.2557 6.75248 63.8965 7.32673 64.3771 8.07921C64.9178 7.34654 65.6187 6.77228 66.4798 6.35644C67.3609 5.94059 68.3121 5.73267 69.3334 5.73267C70.5148 5.73267 71.5361 5.9802 72.3972 6.47525C73.2783 6.9703 73.9592 7.69307 74.4398 8.64357C74.9204 9.57426 75.1607 10.7327 75.1607 12.1188V20.7921H71.3158V12.6238C71.3158 11.495 71.0655 10.6436 70.5649 10.0693C70.0643 9.49505 69.3534 9.20792 68.4322 9.20792C67.491 9.20792 66.7501 9.50495 66.2094 10.099C65.6888 10.6931 65.4285 11.5545 65.4285 12.6832V20.7921H61.5836V12.6238C61.5836 11.495 61.3533 10.6436 60.8928 10.0693C60.4522 9.49505 59.7714 9.20792 58.8502 9.20792C57.909 9.20792 57.1881 9.50495 56.6875 10.099C56.2069 10.6733 55.9666 11.5248 55.9666 12.6535V20.7921H52.1217V5.9406Z" fill="white"/>
<path d="M88.4317 3.35644H87.3503L81.1626 20.7921H76.9873L84.5268 0H91.2252L98.7647 20.7921H94.5894L88.4317 3.35644ZM81.5531 12.6535H93.8084V16.0099H81.5531V12.6535Z" fill="#2B6377"/>
<path d="M100.845 5.9406H104.329L104.6 7.84158C105.02 7.32673 105.491 6.91089 106.011 6.59406C106.552 6.25743 107.143 6.0297 107.784 5.91089C108.425 5.77228 109.095 5.78218 109.796 5.9406V9.50495C109.256 9.32673 108.685 9.27723 108.084 9.35644C107.503 9.43564 106.953 9.64357 106.432 9.9802C105.931 10.3168 105.511 10.802 105.17 11.4356C104.85 12.0495 104.69 12.8317 104.69 13.7822V20.7921H100.845V5.9406Z" fill="#2B6377"/>
<path d="M113.337 5.9406V1.78218H117.242V5.9406H120.546V9.29703H117.242V15.3267C117.242 16.099 117.402 16.6436 117.723 16.9604C118.063 17.2772 118.484 17.4455 118.984 17.4653C119.505 17.4851 120.026 17.4554 120.546 17.3762V20.6436C119.625 20.8416 118.724 20.901 117.843 20.8218C116.982 20.7426 116.211 20.5149 115.53 20.1386C114.849 19.7426 114.308 19.1485 113.908 18.3564C113.527 17.5644 113.337 16.5545 113.337 15.3267V9.29703H111.204V5.9406H113.337Z" fill="#2B6377"/>
<path d="M125.989 15.9505C126.109 16.4455 126.309 16.8218 126.589 17.0792C126.89 17.3366 127.22 17.5248 127.581 17.6436C127.961 17.7426 128.342 17.7921 128.722 17.7921C129.423 17.7921 129.974 17.6634 130.374 17.4059C130.775 17.1287 130.975 16.7822 130.975 16.3663C130.975 16.0099 130.835 15.7327 130.554 15.5347C130.274 15.3168 129.914 15.1584 129.473 15.0594C129.033 14.9406 128.582 14.8218 128.121 14.703C127.581 14.5644 127 14.4158 126.379 14.2574C125.778 14.0792 125.208 13.8317 124.667 13.5149C124.126 13.198 123.676 12.7921 123.315 12.297C122.955 11.7822 122.775 11.1386 122.775 10.3663C122.775 9.45545 123.025 8.65347 123.526 7.9604C124.046 7.26733 124.757 6.72277 125.658 6.32673C126.579 5.93069 127.641 5.73267 128.842 5.73267C130.264 5.73267 131.466 6.0297 132.447 6.62376C133.428 7.21782 134.139 8.06931 134.579 9.17822L131.185 10.1287C131.085 9.85149 130.915 9.62376 130.675 9.44555C130.434 9.26733 130.144 9.13861 129.803 9.05941C129.483 8.9802 129.153 8.94059 128.812 8.94059C128.231 8.94059 127.751 9.05941 127.37 9.29703C126.99 9.51485 126.8 9.82178 126.8 10.2178C126.8 10.4554 126.87 10.6535 127.01 10.8119C127.15 10.9505 127.34 11.0693 127.581 11.1683C127.841 11.2673 128.131 11.3564 128.452 11.4356C128.792 11.5149 129.163 11.604 129.563 11.703C130.184 11.8614 130.805 12.0495 131.426 12.2673C132.066 12.4653 132.647 12.7228 133.168 13.0396C133.708 13.3564 134.139 13.7822 134.459 14.3168C134.78 14.8515 134.96 15.5248 135 16.3366C135 17.2079 134.75 18 134.249 18.7129C133.748 19.4059 133.028 19.9604 132.086 20.3762C131.145 20.7921 130.004 21 128.662 21C127.1 21 125.768 20.6733 124.667 20.0198C123.586 19.3663 122.875 18.3465 122.534 16.9604L125.989 15.9505Z" fill="#2B6377"/>
</svg>
